{
    "asset" : {
        "generator" : "Khronos glTF Blender I/O v1.8.19",
        "version" : "2.0"
    },
    "scene" : 0,
    "scenes" : [
        {
            "name" : "Scene",
            "nodes" : [
                4
            ]
        }
    ],
    "nodes" : [
        {
            "mesh" : 0,
            "name" : "Bili_tongue"
        },
        {
            "mesh" : 1,
            "name" : "BiliMesh"
        },
        {
            "mesh" : 2,
            "name" : "Left_eye"
        },
        {
            "mesh" : 3,
            "name" : "Right_eye"
        },
        {
            "children" : [
                0,
                1,
                2,
                3
            ],
            "name" : "Bili",
            "rotation" : [
                0.7071068286895752,
                0,
                0,
                0.7071067094802856
            ],
            "scale" : [
                0.15281681716442108,
                0.15281681716442108,
                0.15281681716442108
            ]
        }
    ],
    "materials" : [
        {
            "doubleSided" : true,
            "name" : "tounge",
            "pbrMetallicRoughness" : {
                "baseColorFactor" : [
                    0.5,
                    0.5,
                    0.5,
                    1
                ],
                "metallicFactor" : 0.5,
                "roughnessFactor" : 0.7487671971321106
            }
        },
        {
            "doubleSided" : true,
            "name" : "skin",
            "pbrMetallicRoughness" : {
                "baseColorFactor" : [
                    0.5,
                    0.5,
                    0.5,
                    1
                ],
                "roughnessFactor" : 0.5527864098548889
            }
        },
        {
            "doubleSided" : true,
            "name" : "bone",
            "pbrMetallicRoughness" : {
                "baseColorFactor" : [
                    0.5,
                    0.5,
                    0.5,
                    1
                ],
                "metallicFactor" : 0.5,
                "roughnessFactor" : 0.5527864098548889
            }
        },
        {
            "doubleSided" : true,
            "name" : "inner_mouth",
            "pbrMetallicRoughness" : {
                "baseColorFactor" : [
                    0.5,
                    0.5,
                    0.5,
                    1
                ],
                "metallicFactor" : 0.5,
                "roughnessFactor" : 0.7487671971321106
            }
        },
        {
            "doubleSided" : true,
            "name" : "lambert1",
            "pbrMetallicRoughness" : {
                "baseColorFactor" : [
                    0.5,
                    0.5,
                    0.5,
                    1
                ],
                "roughnessFactor" : 0.5527864098548889
            }
        },
        {
            "doubleSided" : true,
            "name" : "eyes",
            "pbrMetallicRoughness" : {
                "baseColorFactor" : [
                    0.5,
                    0.5,
                    0.5,
                    1
                ],
                "metallicFactor" : 0.5,
                "roughnessFactor" : 0.7487671971321106
            }
        }
    ],
    "meshes" : [
        {
            "name" : "Mesh",
            "primitives" : [
                {
                    "attributes" : {
                        "POSITION" : 0,
                        "NORMAL" : 1,
                        "TEXCOORD_0" : 2
                    },
                    "indices" : 3,
                    "material" : 0
                }
            ]
        },
        {
            "name" : "Mesh.003",
            "primitives" : [
                {
                    "attributes" : {
                        "POSITION" : 4,
                        "NORMAL" : 5,
                        "TEXCOORD_0" : 6
                    },
                    "indices" : 7,
                    "material" : 1
                },
                {
                    "attributes" : {
                        "POSITION" : 8,
                        "NORMAL" : 9,
                        "TEXCOORD_0" : 10
                    },
                    "indices" : 11,
                    "material" : 2
                },
                {
                    "attributes" : {
                        "POSITION" : 12,
                        "NORMAL" : 13,
                        "TEXCOORD_0" : 14
                    },
                    "indices" : 15,
                    "material" : 3
                }
            ]
        },
        {
            "name" : "Mesh.002",
            "primitives" : [
                {
                    "attributes" : {
                        "POSITION" : 16,
                        "NORMAL" : 17,
                        "TEXCOORD_0" : 18
                    },
                    "indices" : 19,
                    "material" : 4
                }
            ]
        },
        {
            "name" : "Mesh.001",
            "primitives" : [
                {
                    "attributes" : {
                        "POSITION" : 20,
                        "NORMAL" : 21,
                        "TEXCOORD_0" : 22
                    },
                    "indices" : 19,
                    "material" : 5
                }
            ]
        }
    ],
    "accessors" : [
        {
            "bufferView" : 0,
            "componentType" : 5126,
            "count" : 146,
            "max" : [
                0.4392361640930176,
                18.987625122070312,
                -26.400381088256836
            ],
            "min" : [
                -0.4392361640930176,
                15.155722618103027,
                -26.67070960998535
            ],
            "type" : "VEC3"
        },
        {
            "bufferView" : 1,
            "componentType" : 5126,
            "count" : 146,
            "type" : "VEC3"
        },
        {
            "bufferView" : 2,
            "componentType" : 5126,
            "count" : 146,
            "type" : "VEC2"
        },
        {
            "bufferView" : 3,
            "componentType" : 5123,
            "count" : 768,
            "type" : "SCALAR"
        },
        {
            "bufferView" : 4,
            "componentType" : 5126,
            "count" : 4712,
            "max" : [
                4.781762599945068,
                19.41948699951172,
                -0.006068229675292969
            ],
            "min" : [
                -4.781762599945068,
                -31.254892349243164,
                -28.996334075927734
            ],
            "type" : "VEC3"
        },
        {
            "bufferView" : 5,
            "componentType" : 5126,
            "count" : 4712,
            "type" : "VEC3"
        },
        {
            "bufferView" : 6,
            "componentType" : 5126,
            "count" : 4712,
            "type" : "VEC2"
        },
        {
            "bufferView" : 7,
            "componentType" : 5123,
            "count" : 15822,
            "type" : "SCALAR"
        },
        {
            "bufferView" : 8,
            "componentType" : 5126,
            "count" : 2884,
            "max" : [
                6.188014030456543,
                12.319281578063965,
                -0.006068289279937744
            ],
            "min" : [
                -6.188014030456543,
                -27.494226455688477,
                -28.46126937866211
            ],
            "type" : "VEC3"
        },
        {
            "bufferView" : 9,
            "componentType" : 5126,
            "count" : 2884,
            "type" : "VEC3"
        },
        {
            "bufferView" : 10,
            "componentType" : 5126,
            "count" : 2884,
            "type" : "VEC2"
        },
        {
            "bufferView" : 11,
            "componentType" : 5123,
            "count" : 8832,
            "type" : "SCALAR"
        },
        {
            "bufferView" : 12,
            "componentType" : 5126,
            "count" : 262,
            "max" : [
                1.100235939025879,
                19.349422454833984,
                -25.572669982910156
            ],
            "min" : [
                -1.100235939025879,
                16.659048080444336,
                -27.805858612060547
            ],
            "type" : "VEC3"
        },
        {
            "bufferView" : 13,
            "componentType" : 5126,
            "count" : 262,
            "type" : "VEC3"
        },
        {
            "bufferView" : 14,
            "componentType" : 5126,
            "count" : 262,
            "type" : "VEC2"
        },
        {
            "bufferView" : 15,
            "componentType" : 5123,
            "count" : 672,
            "type" : "SCALAR"
        },
        {
            "bufferView" : 16,
            "componentType" : 5126,
            "count" : 125,
            "max" : [
                1.5417909622192383,
                14.232476234436035,
                -27.1136531829834
            ],
            "min" : [
                0.6019563674926758,
                13.292641639709473,
                -28.05348777770996
            ],
            "type" : "VEC3"
        },
        {
            "bufferView" : 17,
            "componentType" : 5126,
            "count" : 125,
            "type" : "VEC3"
        },
        {
            "bufferView" : 18,
            "componentType" : 5126,
            "count" : 125,
            "type" : "VEC2"
        },
        {
            "bufferView" : 19,
            "componentType" : 5123,
            "count" : 576,
            "type" : "SCALAR"
        },
        {
            "bufferView" : 20,
            "componentType" : 5126,
            "count" : 125,
            "max" : [
                -0.6019562482833862,
                14.232475280761719,
                -27.1136531829834
            ],
            "min" : [
                -1.5417910814285278,
                13.292641639709473,
                -28.05348777770996
            ],
            "type" : "VEC3"
        },
        {
            "bufferView" : 21,
            "componentType" : 5126,
            "count" : 125,
            "type" : "VEC3"
        },
        {
            "bufferView" : 22,
            "componentType" : 5126,
            "count" : 125,
            "type" : "VEC2"
        }
    ],
    "bufferViews" : [
        {
            "buffer" : 0,
            "byteLength" : 1752,
            "byteOffset" : 0
        },
        {
            "buffer" : 0,
            "byteLength" : 1752,
            "byteOffset" : 1752
        },
        {
            "buffer" : 0,
            "byteLength" : 1168,
            "byteOffset" : 3504
        },
        {
            "buffer" : 0,
            "byteLength" : 1536,
            "byteOffset" : 4672
        },
        {
            "buffer" : 0,
            "byteLength" : 56544,
            "byteOffset" : 6208
        },
        {
            "buffer" : 0,
            "byteLength" : 56544,
            "byteOffset" : 62752
        },
        {
            "buffer" : 0,
            "byteLength" : 37696,
            "byteOffset" : 119296
        },
        {
            "buffer" : 0,
            "byteLength" : 31644,
            "byteOffset" : 156992
        },
        {
            "buffer" : 0,
            "byteLength" : 34608,
            "byteOffset" : 188636
        },
        {
            "buffer" : 0,
            "byteLength" : 34608,
            "byteOffset" : 223244
        },
        {
            "buffer" : 0,
            "byteLength" : 23072,
            "byteOffset" : 257852
        },
        {
            "buffer" : 0,
            "byteLength" : 17664,
            "byteOffset" : 280924
        },
        {
            "buffer" : 0,
            "byteLength" : 3144,
            "byteOffset" : 298588
        },
        {
            "buffer" : 0,
            "byteLength" : 3144,
            "byteOffset" : 301732
        },
        {
            "buffer" : 0,
            "byteLength" : 2096,
            "byteOffset" : 304876
        },
        {
            "buffer" : 0,
            "byteLength" : 1344,
            "byteOffset" : 306972
        },
        {
            "buffer" : 0,
            "byteLength" : 1500,
            "byteOffset" : 308316
        },
        {
            "buffer" : 0,
            "byteLength" : 1500,
            "byteOffset" : 309816
        },
        {
            "buffer" : 0,
            "byteLength" : 1000,
            "byteOffset" : 311316
        },
        {
            "buffer" : 0,
            "byteLength" : 1152,
            "byteOffset" : 312316
        },
        {
            "buffer" : 0,
            "byteLength" : 1500,
            "byteOffset" : 313468
        },
        {
            "buffer" : 0,
            "byteLength" : 1500,
            "byteOffset" : 314968
        },
        {
            "buffer" : 0,
            "byteLength" : 1000,
            "byteOffset" : 316468
        }
    ],
    "buffers" : [
        {
            "byteLength" : 317468,
            "uri" : "data:application/octet-stream;base64,"
        }
    ]
}
